<svg xmlns="http://www.w3.org/2000/svg" xmlns:xlink="http://www.w3.org/1999/xlink" viewBox="0,0,256,256" width="96px" height="96px" fill-rule="nonzero"><g transform="translate(-21.33333,-21.33333) scale(1.16667,1.16667)"><g fill="none" fill-rule="nonzero" stroke="none" stroke-width="1" stroke-linecap="butt" stroke-linejoin="miter" stroke-miterlimit="10" stroke-dasharray="" stroke-dashoffset="0" font-family="none" font-weight="none" font-size="none" text-anchor="none" style="mix-blend-mode: normal"><g transform="scale(5.33333,5.33333)"><path d="M24,4c-11.046,0 -20,8.954 -20,20c0,8.887 5.801,16.411 13.82,19.016h12.36c8.019,-2.605 13.82,-10.129 13.82,-19.016c0,-11.046 -8.954,-20 -20,-20z" fill="#2100c4"></path><path d="M37,23.5c0,-2.897 -0.875,-4.966 -2.355,-6.424c0.946,-1.682 -0.306,-5.076 -0.306,-5.076c-2.5,0.5 -4.367,1.5 -5.609,2.376c-1.468,-0.261 -3.059,-0.376 -4.73,-0.376c-1.71,0 -3.339,0.118 -4.834,0.393c-1.242,-0.879 -3.115,-1.889 -5.632,-2.393c0,0 -1.284,3.492 -0.255,5.146c-1.436,1.454 -2.279,3.505 -2.279,6.354c0,6.122 3.879,8.578 9.209,9.274c-0.743,0.873 -1.209,1.99 -1.209,3.226v0.305c-0.163,0.045 -0.332,0.084 -0.514,0.108c-1.107,0.143 -2.271,0 -2.833,-0.333c-0.562,-0.333 -1.229,-1.083 -1.729,-1.813c-0.422,-0.616 -1.263,-2.032 -3.416,-1.979c-0.376,-0.01 -0.548,0.343 -0.5,0.563c0.043,0.194 0.213,0.5 0.896,0.75c0.685,0.251 1.063,0.854 1.438,1.458c0.418,0.674 0.417,2.468 2.562,3.416c1.53,0.677 2.988,0.594 4.097,0.327l0.001,3.199c0,0.639 -0.585,1.125 -1.191,1.013c1.944,0.654 4.022,0.986 6.189,0.986c2.166,0 4.243,-0.332 6.19,-0.984c-0.606,0.111 -1.19,-0.375 -1.19,-1.014v-6.002c0,-1.236 -0.466,-2.353 -1.209,-3.226c5.33,-0.696 9.209,-3.152 9.209,-9.274z" fill="#ddbaff"></path><path d="M15,18l3.838,-1.279c1.01,-0.337 1.231,-1.684 0.365,-2.302l-0.037,-0.026c-2.399,0.44 -4.445,1.291 -5.888,2.753c0.318,0.512 0.851,0.854 1.722,0.854z" fill="#ddbaff"></path><path d="M28.693,14.402c-0.878,0.623 -0.655,1.987 0.366,2.327l3.813,1.271c0.913,0 1.461,-0.37 1.773,-0.924c-1.46,-1.438 -3.513,-2.274 -5.915,-2.701c-0.013,0.009 -0.025,0.018 -0.037,0.027z" fill="#ddbaff"></path><path d="M24,31c-1.525,0 -2.874,0.697 -3.791,1.774c1.2,0.157 2.472,0.226 3.791,0.226c1.319,0 2.591,-0.069 3.791,-0.226c-0.917,-1.077 -2.266,-1.774 -3.791,-1.774z" fill="#ddbaff"></path></g></g></g></svg>