<svg xmlns="http://www.w3.org/2000/svg" xmlns:xlink="http://www.w3.org/1999/xlink" viewBox="0,0,256,256" width="96px" height="96px" fill-rule="nonzero"><g transform="translate(-21.33333,-21.33333) scale(1.16667,1.16667)"><g fill="none" fill-rule="nonzero" stroke="none" stroke-width="1" stroke-linecap="butt" stroke-linejoin="miter" stroke-miterlimit="10" stroke-dasharray="" stroke-dashoffset="0" font-family="none" font-weight="none" font-size="none" text-anchor="none" style="mix-blend-mode: normal"><g transform="scale(5.33333,5.33333)"><path d="M24,4c-11,0 -20,9 -20,20c0,11 9,20 20,20c11,0 20,-9 20,-20c0,-11 -9,-20 -20,-20z" fill="#1976d2"></path><path d="M25.2,33.2c-9,0 -14.1,-6.1 -14.3,-16.4h4.5c0.1,7.5 3.5,10.7 6.1,11.3v-11.3h4.2v6.5c2.6,-0.3 5.3,-3.2 6.2,-6.5h4.2c-0.7,4 -3.7,7 -5.8,8.2c2.1,1 5.5,3.6 6.7,8.2h-4.7c-1,-3.1 -3.5,-5.5 -6.8,-5.9v5.9z" fill="#ffffff"></path></g></g></g></svg>